<svg width="209" height="184" viewBox="0 0 209 184" fill="none" xmlns="http://www.w3.org/2000/svg">
<path d="M86.1592 43.3147H85.2098V15.879C85.2098 13.7938 84.8204 11.7289 84.0639 9.80238C83.3074 7.87585 82.1986 6.12535 80.8008 4.65085C79.403 3.17634 77.7435 2.0067 75.9172 1.20871C74.0908 0.410713 72.1333 -6.52381e-06 70.1565 0H15.0533C13.0764 -6.52381e-06 11.119 0.410713 9.29263 1.20871C7.46628 2.0067 5.80682 3.17634 4.40899 4.65085C3.01117 6.12536 1.90235 7.87585 1.14585 9.80239C0.389357 11.7289 -3.0923e-06 13.7938 0 15.879V166.393C-1.85537e-06 168.479 0.389361 170.543 1.14586 172.47C1.90235 174.396 3.01117 176.147 4.409 177.621C5.80682 179.096 7.46628 180.266 9.29263 181.064C11.119 181.862 13.0764 182.272 15.0533 182.272H70.1565C72.1333 182.272 74.0908 181.862 75.9171 181.064C77.7435 180.266 79.403 179.096 80.8008 177.621C82.1986 176.147 83.3074 174.396 84.0639 172.47C84.8204 170.543 85.2098 168.479 85.2098 166.393V62.8439H86.1592V43.3147Z" fill="#E6E6E6"/>
<path d="M70.6845 4.31924H63.5123C63.8421 5.17285 63.968 6.09897 63.8789 7.01603C63.7898 7.9331 63.4884 8.81296 63.0013 9.5781C62.5142 10.3432 61.8563 10.9702 61.0855 11.4037C60.3148 11.8372 59.4549 12.064 58.5816 12.0641H27.1042C26.2308 12.064 25.3709 11.8372 24.6002 11.4037C23.8295 10.9702 23.1716 10.3432 22.6845 9.5781C22.1973 8.81296 21.8959 7.9331 21.8068 7.01603C21.7177 6.09897 21.8436 5.17285 22.1734 4.31924H15.4746C14.0026 4.31924 12.545 4.6253 11.185 5.21994C9.825 5.81459 8.58929 6.68617 7.54841 7.78493C6.50752 8.8837 5.68185 10.1881 5.11853 11.6237C4.5552 13.0593 4.26526 14.598 4.26526 16.1519V166.12C4.26526 167.674 4.5552 169.213 5.11852 170.649C5.68185 172.084 6.50752 173.389 7.54841 174.487C8.58929 175.586 9.825 176.458 11.185 177.052C12.545 177.647 14.0026 177.953 15.4746 177.953H70.6845C72.1565 177.953 73.6141 177.647 74.9741 177.052C76.3341 176.458 77.5698 175.586 78.6107 174.487C79.6516 173.389 80.4773 172.084 81.0406 170.649C81.6039 169.213 81.8938 167.674 81.8938 166.12V16.1519C81.8938 14.598 81.6039 13.0593 81.0406 11.6237C80.4772 10.1881 79.6516 8.8837 78.6107 7.78493C77.5698 6.68617 76.3341 5.81459 74.9741 5.21994C73.6141 4.6253 72.1565 4.31924 70.6845 4.31924Z" fill="white"/>
<path d="M26.8511 34.554H23.4797C23.3611 34.554 23.2475 34.6072 23.1636 34.7018C23.0798 34.7964 23.0327 34.9248 23.0327 35.0586V36.7293C23.0327 36.8631 23.0798 36.9914 23.1636 37.0861C23.2475 37.1807 23.3611 37.2339 23.4797 37.2339H24.0384V39.7371H26.2924V37.2339H26.8511C26.9696 37.2339 27.0833 37.1807 27.1671 37.0861C27.2509 36.9914 27.298 36.8631 27.298 36.7293V35.0586C27.298 34.9248 27.2509 34.7964 27.1671 34.7018C27.0833 34.6072 26.9696 34.554 26.8511 34.554Z" fill="#E6E6E6"/>
<path d="M30.3328 48.7453C28.1851 45.6385 27.0871 41.9395 27.1962 38.1782C27.1982 38.0914 27.1697 38.0066 27.1156 37.9382C27.0615 37.8698 26.9851 37.8221 26.8994 37.803V37.1455H23.1958V37.7939H23.1447C23.044 37.794 22.9473 37.8337 22.8762 37.9043C22.805 37.9748 22.7651 38.0704 22.7652 38.1701C22.7652 38.1792 22.7656 38.1883 22.7663 38.1974C23.058 42.2183 22.0728 45.8241 19.8104 49.0149C19.6802 49.1983 19.6137 49.4185 19.6209 49.6424L20.0259 62.0263C20.0356 62.3026 20.1529 62.5644 20.3532 62.7572C20.5535 62.95 20.8214 63.0588 21.101 63.061H29.4782C29.7609 63.0588 30.0316 62.9474 30.2326 62.7507C30.4335 62.5541 30.5489 62.2876 30.554 62.0081L30.71 49.9843C30.7147 49.5429 30.5831 49.1107 30.3328 48.7453Z" fill="#E6E6E6"/>
<path d="M29.1305 52.6948H22.0532C21.9484 52.6948 21.8449 52.7175 21.7497 52.7611C21.6545 52.8048 21.5699 52.8685 21.5017 52.9479C21.4335 53.0272 21.3832 53.1204 21.3545 53.2209C21.3257 53.3215 21.3191 53.4271 21.335 53.5304L22.4045 60.4695H28.5456L29.8447 53.5538C29.8644 53.4491 29.8607 53.3413 29.8339 53.2381C29.8071 53.1349 29.7579 53.0389 29.6897 52.9569C29.6215 52.8749 29.536 52.8089 29.4394 52.7636C29.3428 52.7183 29.2373 52.6948 29.1305 52.6948Z" fill="white"/>
<path d="M63.5326 71.6995H60.1612C60.0427 71.6995 59.929 71.7527 59.8451 71.8473C59.7613 71.942 59.7142 72.0703 59.7142 72.2041V73.8748C59.7142 74.0086 59.7613 74.137 59.8451 74.2316C59.929 74.3263 60.0427 74.3794 60.1612 74.3794H60.7199V76.8826H62.9739V74.3794H63.5326C63.6511 74.3794 63.7648 74.3262 63.8486 74.2316C63.9324 74.137 63.9795 74.0086 63.9795 73.8748V72.2041C63.9795 72.0703 63.9324 71.9419 63.8486 71.8473C63.7648 71.7527 63.6511 71.6995 63.5326 71.6995Z" fill="#E6E6E6"/>
<path d="M67.0435 85.8908C65.061 82.7841 64.0476 79.0851 64.1483 75.3237C64.1501 75.2369 64.1238 75.1521 64.0738 75.0837C64.0239 75.0154 63.9534 74.9676 63.8743 74.9486V74.2911H60.4555V74.9394H60.4084C60.3624 74.9395 60.3168 74.9493 60.2742 74.9682C60.2317 74.9872 60.193 75.0149 60.1605 75.0498C60.128 75.0848 60.1022 75.1262 60.0846 75.1718C60.067 75.2174 60.058 75.2663 60.0581 75.3156C60.0581 75.3247 60.0584 75.3339 60.059 75.343C60.3284 79.3638 59.4189 82.9697 57.3306 86.1605C57.2104 86.3438 57.149 86.564 57.1556 86.7879L57.5295 99.1719C57.5384 99.4481 57.6467 99.7099 57.8316 99.9027C58.0165 100.096 58.2638 100.204 58.5219 100.207H66.2547C66.5157 100.204 66.7655 100.093 66.951 99.8963C67.1365 99.6996 67.243 99.4331 67.2477 99.1536L67.3918 87.1298C67.396 86.6885 67.2746 86.2563 67.0435 85.8908Z" fill="#E6E6E6"/>
<path d="M65.8122 89.8404H58.7348C58.63 89.8404 58.5265 89.8655 58.4313 89.914C58.3361 89.9626 58.2515 90.0333 58.1833 90.1215C58.1151 90.2097 58.0649 90.3132 58.0361 90.4249C58.0073 90.5367 58.0007 90.654 58.0166 90.7688L59.0861 98.4789H65.2273L66.5263 90.7948C66.546 90.6784 66.5423 90.5586 66.5155 90.444C66.4887 90.3294 66.4395 90.2227 66.3713 90.1316C66.3031 90.0405 66.2177 89.9672 66.121 89.9168C66.0244 89.8665 65.9189 89.8404 65.8122 89.8404H65.8122Z" fill="white"/>
<path d="M22.0008 124.394H20.6523C20.6049 124.394 20.5594 124.421 20.5259 124.468C20.4923 124.516 20.4735 124.58 20.4735 124.647V125.482C20.4735 125.549 20.4923 125.613 20.5259 125.66C20.5594 125.708 20.6049 125.734 20.6523 125.734H20.8758V126.986H21.7774V125.734H22.0008C22.0483 125.734 22.0937 125.708 22.1273 125.66C22.1608 125.613 22.1796 125.549 22.1796 125.482V124.647C22.1796 124.58 22.1608 124.516 22.1273 124.468C22.0937 124.421 22.0483 124.394 22.0008 124.394Z" fill="#E6E6E6"/>
<path d="M23.7115 131.535C22.7203 130.085 22.2135 128.359 22.2639 126.604C22.2648 126.563 22.2516 126.524 22.2267 126.492C22.2017 126.46 22.1665 126.438 22.1269 126.429V126.122H20.4175V126.425H20.394C20.3709 126.425 20.3481 126.429 20.3269 126.438C20.3056 126.447 20.2863 126.46 20.27 126.476C20.2537 126.492 20.2408 126.512 20.2321 126.533C20.2233 126.554 20.2188 126.577 20.2188 126.6C20.2188 126.604 20.219 126.609 20.2193 126.613C20.3771 128.404 19.8936 130.193 18.8551 131.661C18.795 131.747 18.7643 131.849 18.7676 131.954L18.9545 137.733C18.959 137.862 19.0131 137.984 19.1056 138.074C19.198 138.164 19.3217 138.215 19.4507 138.216H23.3171C23.4476 138.215 23.5725 138.163 23.6653 138.071C23.758 137.979 23.8113 137.855 23.8136 137.725L23.8856 132.113C23.8878 131.908 23.827 131.706 23.7115 131.535Z" fill="#E6E6E6"/>
<path d="M23.0326 133.897H19.6204V135.624H23.0326V133.897Z" fill="white"/>
<path d="M29.589 124.394H27.5662C27.495 124.394 27.4268 124.421 27.3765 124.468C27.3262 124.516 27.298 124.58 27.298 124.647V125.482C27.298 125.549 27.3262 125.613 27.3765 125.66C27.4268 125.708 27.495 125.734 27.5662 125.734H27.9014V126.986H29.2538V125.734H29.589C29.6601 125.734 29.7283 125.708 29.7786 125.66C29.8289 125.613 29.8572 125.549 29.8572 125.482V124.647C29.8572 124.58 29.8289 124.516 29.7786 124.468C29.7283 124.421 29.6601 124.394 29.589 124.394Z" fill="#E6E6E6"/>
<path d="M31.3891 131.535C30.3979 130.085 29.8912 128.359 29.9415 126.604C29.9424 126.563 29.9293 126.524 29.9043 126.492C29.8793 126.46 29.8441 126.438 29.8045 126.429V126.122H28.0951V126.425H28.0716C28.0485 126.425 28.0257 126.429 28.0045 126.438C27.9832 126.447 27.9639 126.46 27.9476 126.476C27.9314 126.492 27.9185 126.512 27.9097 126.533C27.9009 126.554 27.8964 126.577 27.8964 126.6C27.8964 126.604 27.8966 126.609 27.8969 126.613C28.0547 128.404 27.5712 130.193 26.5327 131.661C26.4726 131.747 26.4419 131.849 26.4452 131.954L26.6321 137.733C26.6366 137.862 26.6907 137.984 26.7832 138.074C26.8756 138.164 26.9993 138.215 27.1283 138.216H30.9947C31.1252 138.215 31.2501 138.163 31.3429 138.071C31.4356 137.979 31.4889 137.855 31.4912 137.725L31.5633 132.113C31.5654 131.908 31.5047 131.706 31.3891 131.535Z" fill="#E6E6E6"/>
<path d="M30.7103 133.897H26.4449V135.624H30.7103V133.897Z" fill="white"/>
<path d="M36.5028 124.394H35.1543C35.1068 124.394 35.0614 124.421 35.0278 124.468C34.9943 124.516 34.9755 124.58 34.9755 124.647V125.482C34.9755 125.549 34.9943 125.613 35.0278 125.66C35.0614 125.708 35.1068 125.734 35.1543 125.734H35.3777V126.986H36.2793V125.734H36.5028C36.5502 125.734 36.5957 125.708 36.6292 125.66C36.6628 125.613 36.6816 125.549 36.6816 125.482V124.647C36.6816 124.58 36.6628 124.516 36.6292 124.468C36.5957 124.421 36.5502 124.394 36.5028 124.394Z" fill="#E6E6E6"/>
<path d="M38.2136 131.535C37.2224 130.085 36.7156 128.359 36.766 126.604C36.7669 126.563 36.7537 126.524 36.7287 126.492C36.7038 126.46 36.6685 126.438 36.629 126.429V126.122H34.9196V126.425H34.896C34.873 126.425 34.8502 126.429 34.8289 126.438C34.8077 126.447 34.7884 126.46 34.7721 126.476C34.7558 126.492 34.7429 126.512 34.7341 126.533C34.7253 126.554 34.7208 126.577 34.7209 126.6C34.7209 126.604 34.721 126.609 34.7214 126.613C34.8791 128.404 34.3957 130.193 33.3571 131.661C33.297 131.747 33.2663 131.849 33.2696 131.954L33.4566 137.733C33.461 137.862 33.5152 137.984 33.6076 138.074C33.7001 138.164 33.8237 138.215 33.9528 138.216H37.8192C37.9497 138.215 38.0746 138.163 38.1674 138.071C38.2601 137.979 38.3133 137.855 38.3157 137.725L38.3877 132.113C38.3899 131.908 38.3291 131.706 38.2136 131.535Z" fill="#E6E6E6"/>
<path d="M37.5347 133.897H34.1224V135.624H37.5347V133.897Z" fill="white"/>
<path d="M57.5613 110.573H54.1899C54.1312 110.573 54.0731 110.584 54.0188 110.605C53.9646 110.626 53.9153 110.657 53.8738 110.696C53.8323 110.735 53.7994 110.781 53.7769 110.832C53.7545 110.883 53.7429 110.938 53.7429 110.993V112.386C53.7429 112.497 53.79 112.604 53.8738 112.683C53.9577 112.762 54.0714 112.806 54.1899 112.806H54.7486V114.892H57.0026V112.806H57.5613C57.6798 112.806 57.7935 112.762 57.8773 112.683C57.9611 112.604 58.0082 112.497 58.0082 112.386V110.993C58.0082 110.938 57.9967 110.883 57.9742 110.832C57.9517 110.781 57.9188 110.735 57.8773 110.696C57.8358 110.657 57.7865 110.626 57.7323 110.605C57.6781 110.584 57.6199 110.573 57.5613 110.573Z" fill="#E6E6E6"/>
<path d="M61.0721 124.287C59.0896 121.077 58.0761 117.254 58.1768 113.368C58.1786 113.278 58.1523 113.19 58.1024 113.12C58.0525 113.049 57.982 113 57.9029 112.98V112.3H54.4841V112.97H54.437C54.3909 112.971 54.3453 112.981 54.3028 113C54.2602 113.02 54.2216 113.048 54.1891 113.085C54.1565 113.121 54.1307 113.163 54.1132 113.211C54.0956 113.258 54.0866 113.308 54.0866 113.359C54.0867 113.369 54.087 113.378 54.0876 113.387C54.3569 117.542 53.4475 121.268 51.3592 124.566C51.239 124.755 51.1776 124.982 51.1842 125.214L51.558 138.011C51.567 138.296 51.6753 138.567 51.8602 138.766C52.0451 138.965 52.2924 139.078 52.5505 139.08H60.2832C60.5442 139.077 60.7941 138.962 60.9796 138.759C61.1651 138.556 61.2715 138.281 61.2763 137.992L61.4203 125.567C61.4246 125.111 61.3031 124.665 61.0721 124.287Z" fill="#E6E6E6"/>
<path d="M59.8407 128.714H52.7634C52.6586 128.714 52.5551 128.736 52.4599 128.78C52.3647 128.824 52.2801 128.887 52.2119 128.967C52.1437 129.046 52.0935 129.139 52.0647 129.24C52.0359 129.34 52.0293 129.446 52.0452 129.549L53.1147 136.488H59.2559L60.5549 129.573C60.5746 129.468 60.5709 129.36 60.5441 129.257C60.5173 129.154 60.4681 129.058 60.3999 128.976C60.3317 128.894 60.2462 128.828 60.1496 128.782C60.053 128.737 59.9475 128.714 59.8407 128.714Z" fill="white"/>
<path d="M59.7143 64.7887H40.0939C41.4656 56.9045 41.15 47.3841 40.0939 37.1455H59.7143C58.6862 47.3841 58.379 56.9046 59.7143 64.7887Z" fill="#E6E6E6"/>
<path d="M49.9041 55.2864C52.4953 55.2864 54.596 52.9658 54.596 50.1033C54.596 47.2407 52.4953 44.9202 49.9041 44.9202C47.3129 44.9202 45.2123 47.2407 45.2123 50.1033C45.2123 52.9658 47.3129 55.2864 49.9041 55.2864Z" fill="white"/>
<path d="M41.8 101.07H22.1796C23.5513 93.1862 23.2357 83.6658 22.1796 73.4272H41.8C40.7719 83.6658 40.4647 93.1862 41.8 101.07Z" fill="#E6E6E6"/>
<path d="M31.9898 91.5681C34.581 91.5681 36.6816 89.4409 36.6816 86.8169C36.6816 84.1929 34.581 82.0657 31.9898 82.0657C29.3986 82.0657 27.298 84.1929 27.298 86.8169C27.298 89.4409 29.3986 91.5681 31.9898 91.5681Z" fill="white"/>
<path d="M70.8041 66.5164H51.1837C52.5555 58.6322 52.2399 49.1118 51.1837 38.8732H70.8041C69.7761 49.1118 69.4689 58.6322 70.8041 66.5164Z" fill="#E6E6E6"/>
<path d="M60.9938 57.0141C63.5851 57.0141 65.6857 54.6935 65.6857 51.831C65.6857 48.9684 63.5851 46.6479 60.9938 46.6479C58.4026 46.6479 56.302 48.9684 56.302 51.831C56.302 54.6935 58.4026 57.0141 60.9938 57.0141Z" fill="white"/>
<path d="M70.8041 64.7887H51.1837C52.5555 57.1509 52.2399 47.928 51.1837 38.0094H70.8041C69.7761 47.928 69.4689 57.1509 70.8041 64.7887Z" fill="#E6E6E6"/>
<path d="M60.9938 55.2864C63.5851 55.2864 65.6857 53.1592 65.6857 50.5352C65.6857 47.9112 63.5851 45.784 60.9938 45.784C58.4026 45.784 56.302 47.9112 56.302 50.5352C56.302 53.1592 58.4026 55.2864 60.9938 55.2864Z" fill="white"/>
<path d="M70.8041 66.5164H51.1837C52.5555 58.6322 52.2399 49.1118 51.1837 38.8732H70.8041C69.7761 49.1118 69.4689 58.6322 70.8041 66.5164Z" fill="#E6E6E6"/>
<path d="M60.9938 57.0141C63.5851 57.0141 65.6857 54.6935 65.6857 51.831C65.6857 48.9684 63.5851 46.6479 60.9938 46.6479C58.4026 46.6479 56.302 48.9684 56.302 51.831C56.302 54.6935 58.4026 57.0141 60.9938 57.0141Z" fill="white"/>
<path d="M75.0694 63.061H11.0898V70.8357H75.0694V63.061Z" fill="#E6E6E6"/>
<path d="M75.0694 100.207H11.0898V107.981H75.0694V100.207Z" fill="#E6E6E6"/>
<path d="M75.0694 137.352H11.0898V145.127H75.0694V137.352Z" fill="#E6E6E6"/>
<path d="M187.757 168.451L171.465 156.427C176.96 150.842 181.957 142.889 186.737 133.897L203.029 145.921C196.519 153.635 191.004 161.207 187.757 168.451Z" fill="#A8C5A4"/>
<path d="M187.247 155.493C189.838 155.493 191.939 153.172 191.939 150.31C191.939 147.447 189.838 145.127 187.247 145.127C184.656 145.127 182.555 147.447 182.555 150.31C182.555 153.172 184.656 155.493 187.247 155.493Z" fill="white"/>
<path d="M109.866 113.164H108.518C108.47 113.164 108.425 113.191 108.391 113.238C108.358 113.286 108.339 113.35 108.339 113.417V114.252C108.339 114.285 108.343 114.318 108.352 114.349C108.361 114.379 108.375 114.407 108.391 114.43C108.408 114.454 108.427 114.472 108.449 114.485C108.471 114.498 108.494 114.504 108.518 114.504H108.741V115.756H109.643V114.504H109.866C109.913 114.504 109.959 114.478 109.992 114.43C110.026 114.383 110.045 114.319 110.045 114.252V113.417C110.045 113.35 110.026 113.286 109.992 113.238C109.959 113.191 109.913 113.164 109.866 113.164Z" fill="#E6E6E6"/>
<path d="M111.577 121.079C110.586 119.422 110.079 117.449 110.129 115.443C110.13 115.396 110.117 115.351 110.092 115.315C110.067 115.278 110.032 115.253 109.992 115.243V114.892H108.283V115.238H108.259C108.236 115.238 108.213 115.243 108.192 115.253C108.171 115.263 108.152 115.278 108.135 115.297C108.119 115.315 108.106 115.337 108.097 115.362C108.089 115.386 108.084 115.412 108.084 115.438C108.084 115.443 108.084 115.448 108.085 115.453C108.242 117.5 107.759 119.545 106.72 121.222C106.66 121.32 106.63 121.438 106.633 121.557L106.82 128.162C106.824 128.309 106.878 128.449 106.971 128.552C107.063 128.654 107.187 128.712 107.316 128.714H111.182C111.313 128.712 111.438 128.653 111.531 128.548C111.623 128.443 111.677 128.301 111.679 128.152L111.751 121.739C111.753 121.504 111.692 121.273 111.577 121.079Z" fill="#A8C5A4"/>
<path d="M110.898 122.667H107.486V124.394H110.898V122.667Z" fill="white"/>
<path d="M165.9 139.08H162.529C162.41 139.08 162.296 139.133 162.213 139.228C162.129 139.322 162.082 139.451 162.082 139.584V141.255C162.082 141.389 162.129 141.517 162.213 141.612C162.296 141.707 162.41 141.76 162.529 141.76H163.087V144.263H165.341V141.76H165.9C166.019 141.76 166.132 141.707 166.216 141.612C166.3 141.517 166.347 141.389 166.347 141.255V139.584C166.347 139.451 166.3 139.322 166.216 139.228C166.132 139.133 166.019 139.08 165.9 139.08Z" fill="#E6E6E6"/>
<path d="M169.382 153.271C167.234 150.164 166.136 146.465 166.245 142.704C166.247 142.617 166.219 142.532 166.165 142.464C166.111 142.396 166.034 142.348 165.949 142.329V141.671H162.245V142.32H162.194C162.144 142.32 162.094 142.33 162.048 142.349C162.002 142.367 161.96 142.395 161.925 142.43C161.89 142.465 161.862 142.506 161.843 142.552C161.824 142.598 161.814 142.647 161.814 142.696C161.814 142.705 161.815 142.714 161.815 142.723C162.107 146.744 161.122 150.35 158.859 153.541C158.729 153.724 158.663 153.944 158.67 154.168L159.075 166.552C159.085 166.828 159.202 167.09 159.402 167.283C159.603 167.476 159.871 167.585 160.15 167.587H168.527C168.81 167.585 169.081 167.473 169.282 167.277C169.483 167.08 169.598 166.813 169.603 166.534L169.759 154.51C169.764 154.069 169.632 153.637 169.382 153.271Z" fill="#A8C5A4"/>
<path opacity="0.2" d="M165.494 139.944C165.494 140.173 165.359 140.392 165.119 140.554C164.879 140.716 164.554 140.808 164.214 140.808C163.875 140.808 163.549 140.716 163.309 140.554C163.07 140.392 162.935 140.173 162.935 139.944" fill="black"/>
<path d="M168.179 157.221H161.102C160.997 157.221 160.894 157.246 160.799 157.294C160.703 157.343 160.619 157.414 160.551 157.502C160.482 157.59 160.432 157.693 160.403 157.805C160.375 157.917 160.368 158.034 160.384 158.149L161.453 165.859H167.595L168.894 158.175C168.913 158.059 168.91 157.939 168.883 157.824C168.856 157.71 168.807 157.603 168.739 157.512C168.67 157.421 168.585 157.347 168.488 157.297C168.392 157.247 168.286 157.221 168.179 157.221Z" fill="white"/>
<path d="M156.11 168.451H136.49C137.861 160.567 137.546 151.046 136.49 140.808H156.11C155.082 151.046 154.775 160.567 156.11 168.451Z" fill="#A8C5A4"/>
<path d="M146.727 158.948C149.553 158.948 151.845 156.628 151.845 153.765C151.845 150.903 149.553 148.582 146.727 148.582C143.9 148.582 141.608 150.903 141.608 153.765C141.608 156.628 143.9 158.948 146.727 158.948Z" fill="white"/>
<path d="M75.9225 81.2019L80.0929 80.7872L82.747 73.7383L78.0078 70.8357L75.9225 81.2019Z" fill="#FFB8B8"/>
<path d="M116.69 101.293C116.837 100.941 116.895 100.56 116.859 100.181C116.823 99.8032 116.693 99.4387 116.481 99.118C116.27 98.7972 115.981 98.5293 115.641 98.3365C115.3 98.1436 114.916 98.0312 114.521 98.0086L107.645 97.615L106.633 100.847L113.711 102.713C114.303 102.868 114.933 102.81 115.483 102.548C116.032 102.286 116.462 101.84 116.69 101.293Z" fill="#FFB8B8"/>
<path d="M109.192 102.798L109.116 96.0835L93.7281 93.4932L81.874 79.1498C81.2572 78.4035 80.4049 77.9184 79.4751 77.7842C78.5453 77.6501 77.6009 77.876 76.8169 78.4202C76.3422 78.7497 75.9418 79.1852 75.6442 79.6958C75.3466 80.2065 75.1589 80.7799 75.0944 81.3755C75.0299 81.9711 75.0902 82.5744 75.2711 83.1427C75.4519 83.711 75.7488 84.2305 76.1409 84.6644L85.9205 97.3617L109.192 102.798Z" fill="#575A89"/>
<path d="M72.5103 177.953H76.5247L86.4819 130.375L96.7974 145.073L102.819 176.892H106.633L105.83 142.74L92.3816 106.254H79.134C75.5138 113.178 72.6739 120.315 75.9225 127.679L72.5103 177.953Z" fill="#2F2E41"/>
<path d="M100.706 180.878C100.664 181.02 100.651 181.171 100.669 181.319C100.686 181.467 100.732 181.609 100.806 181.737C100.879 181.864 100.977 181.974 101.094 182.058C101.21 182.142 101.342 182.2 101.481 182.226L110.794 183.974C111.162 184.045 111.542 183.971 111.862 183.766C112.183 183.562 112.421 183.24 112.532 182.863C112.641 182.502 112.626 182.112 112.49 181.762C112.353 181.412 112.105 181.123 111.788 180.948C109.74 179.836 107.978 178.215 106.652 176.225C105.628 177.233 104.484 177.139 103.269 176.396L101.981 176.566L100.706 180.878Z" fill="#2F2E41"/>
<path d="M70.8493 180.878C70.8072 181.02 70.7943 181.171 70.8114 181.319C70.8285 181.467 70.8753 181.609 70.9486 181.737C71.0218 181.864 71.12 181.974 71.2364 182.058C71.3528 182.142 71.4849 182.2 71.6238 182.226L80.937 183.974C81.305 184.045 81.6849 183.971 82.0051 183.766C82.3253 183.562 82.5637 183.24 82.6753 182.863C82.7838 182.502 82.7687 182.112 82.6325 181.762C82.4962 181.412 82.2477 181.123 81.9305 180.948C79.8827 179.836 78.1204 178.215 76.7944 176.225C75.7709 177.233 74.6268 177.139 73.412 176.396L72.1234 176.566L70.8493 180.878Z" fill="#2F2E41"/>
<path d="M83.1734 76.8826C86.2358 76.8826 88.7183 74.1753 88.7183 70.8357C88.7183 67.496 86.2358 64.7887 83.1734 64.7887C80.1111 64.7887 77.6285 67.496 77.6285 70.8357C77.6285 74.1753 80.1111 76.8826 83.1734 76.8826Z" fill="#FFB8B8"/>
<path d="M77.9657 107.981L92.9837 107.554L88.5732 93.1323C91.3141 88.5673 88.5557 84.0069 84.6518 79.4475L81.5659 77.3101L76.6285 76.8826C74.4908 79.2591 73.3211 82.4028 73.3644 85.6553C73.4622 92.6199 74.6492 100.202 77.9657 107.981Z" fill="#575A89"/>
<path d="M111.903 117.539C112.171 117.23 112.372 116.851 112.488 116.435C112.605 116.019 112.634 115.576 112.573 115.145C112.513 114.713 112.364 114.304 112.14 113.951C111.915 113.598 111.621 113.313 111.282 113.117L105.381 109.709L103.22 112.691L108.722 117.746C109.182 118.169 109.76 118.381 110.347 118.343C110.934 118.305 111.488 118.019 111.903 117.539Z" fill="#FFB8B8"/>
<path d="M104.265 115.756L106.633 109.637L93.8081 100.99L88.408 83.1329C88.127 82.2038 87.5407 81.4151 86.7576 80.9129C85.9745 80.4107 85.0478 80.229 84.149 80.4015C83.6049 80.506 83.0888 80.737 82.6373 81.0781C82.1858 81.4193 81.8099 81.8624 81.5361 82.3761C81.2623 82.8897 81.0974 83.4614 81.053 84.0507C81.0086 84.64 81.0857 85.2325 81.279 85.7864L85.4205 101.302L104.265 115.756Z" fill="#575A89"/>
<path d="M74.2163 68.1639C74.2163 70.3947 75.5857 73.8494 77.3131 75.3303C78.4752 76.3267 80.0112 76.2847 80.6033 74.9208C81.2108 73.5216 83.3048 70.2328 86.9904 68.1639C91.9035 65.406 85.248 60.6876 80.6033 61.407C77.1131 61.9477 74.2163 64.4322 74.2163 68.1639Z" fill="#2F2E41"/>
<path d="M77.2021 64.7887C79.3222 64.7887 81.0408 63.0483 81.0408 60.9014C81.0408 58.7545 79.3222 57.0141 77.2021 57.0141C75.082 57.0141 73.3633 58.7545 73.3633 60.9014C73.3633 63.0483 75.082 64.7887 77.2021 64.7887Z" fill="#2F2E41"/>
<path d="M82.1518 59.6056C82.1514 58.5167 81.773 57.4682 81.0924 56.6702C80.4117 55.8722 79.4792 55.3838 78.4817 55.3027C78.5803 55.2947 78.6788 55.2864 78.7793 55.2864C79.8316 55.2864 80.8408 55.7414 81.5849 56.5515C82.329 57.3615 82.747 58.4601 82.747 59.6056C82.747 60.7512 82.329 61.8498 81.5849 62.6598C80.8408 63.4698 79.8316 63.9249 78.7793 63.9249C78.6788 63.9249 78.5803 63.9165 78.4817 63.9085C79.4792 63.8275 80.4117 63.339 81.0924 62.541C81.773 61.7431 82.1514 60.6945 82.1518 59.6056Z" fill="#2F2E41"/>
<path d="M83.6 72.5634C84.0711 72.5634 84.4531 71.9832 84.4531 71.2676C84.4531 70.552 84.0711 69.9718 83.6 69.9718C83.1289 69.9718 82.7469 70.552 82.7469 71.2676C82.7469 71.9832 83.1289 72.5634 83.6 72.5634Z" fill="#FFB8B8"/>
<path d="M197.057 170.178H134.57L121.338 104.038H110.045V101.07H123.613L136.845 167.21H197.057V170.178Z" fill="#3F3D56"/>
<path d="M143.741 182.272C147.274 182.272 150.139 179.372 150.139 175.793C150.139 172.215 147.274 169.315 143.741 169.315C140.207 169.315 137.343 172.215 137.343 175.793C137.343 179.372 140.207 182.272 143.741 182.272Z" fill="#3F3D56"/>
<path d="M188.526 182.272C191.824 182.272 194.498 179.372 194.498 175.793C194.498 172.215 191.824 169.315 188.526 169.315C185.229 169.315 182.555 172.215 182.555 175.793C182.555 179.372 185.229 182.272 188.526 182.272Z" fill="#3F3D56"/>
<path d="M196.054 168.451H135.271L124.547 112.3H206.118C206.534 112.301 206.946 112.396 207.324 112.581C207.702 112.765 208.038 113.034 208.308 113.369C208.579 113.704 208.777 114.098 208.891 114.522C209.004 114.946 209.03 115.392 208.965 115.827L198.9 165.872C198.797 166.592 198.452 167.248 197.929 167.722C197.407 168.195 196.741 168.454 196.054 168.451ZM135.931 167.601H196.054C196.55 167.603 197.03 167.417 197.408 167.075C197.785 166.733 198.033 166.259 198.108 165.74L208.173 115.695C208.219 115.381 208.201 115.06 208.119 114.753C208.038 114.447 207.894 114.163 207.699 113.921C207.504 113.679 207.261 113.485 206.988 113.352C206.715 113.219 206.419 113.15 206.118 113.15H125.52L135.931 167.601Z" fill="#3F3D56"/>
<path d="M146.803 168.451L139.902 113.302L140.679 113.164L147.58 168.313L146.803 168.451Z" fill="#3F3D56"/>
<path d="M185.913 168.451L185.114 168.315L191.993 113.164L192.792 113.3L185.913 168.451Z" fill="#3F3D56"/>
<path d="M167.2 113.164H166.347V168.451H167.2V113.164Z" fill="#3F3D56"/>
<path d="M128.51 127.895L128.508 128.742L206.247 128.941L206.248 128.094L128.51 127.895Z" fill="#3F3D56"/>
<path d="M200.763 154.067L132.468 154.559L132.473 155.407L200.768 154.914L200.763 154.067Z" fill="#3F3D56"/>
<path d="M111.325 104.526C113.916 104.526 116.016 103.366 116.016 101.934C116.016 100.503 113.916 99.3427 111.325 99.3427C108.733 99.3427 106.633 100.503 106.633 101.934C106.633 103.366 108.733 104.526 111.325 104.526Z" fill="#3F3D56"/>
</svg>
